<?xml version="1.0" standalone="no"?><!DOCTYPE svg PUBLIC "-//W3C//DTD SVG 1.1//EN" "http://www.w3.org/Graphics/SVG/1.1/DTD/svg11.dtd"><svg t="1685584814028" class="icon" viewBox="0 0 1024 1024" version="1.1" xmlns="http://www.w3.org/2000/svg" p-id="2409" width="64" height="64" xmlns:xlink="http://www.w3.org/1999/xlink"><path d="M246.744812 635.667692h-14.572307a183.138462 183.138462 0 0 1-109.883077-36.233846 18.510769 18.510769 0 0 0-24.812308 3.544616H95.901735a17.329231 17.329231 0 0 0 3.544616 24.418461A215.433846 215.433846 0 0 0 232.172505 669.538462h14.572307a17.723077 17.723077 0 1 0 0-35.052308zM781.981735 102.793846a17.329231 17.329231 0 0 0 12.996923-5.513846 16.147692 16.147692 0 0 0 4.726154-12.603077 16.147692 16.147692 0 0 0-5.513846-12.209231 18.116923 18.116923 0 0 0-24.812308 0 16.541538 16.541538 0 0 0-4.726153 11.815385 17.723077 17.723077 0 0 0 17.32923 18.510769zM873.747889 270.572308V256a250.486154 250.486154 0 0 0-33.083077-124.455385 17.723077 17.723077 0 0 0-24.024615-6.301538 17.329231 17.329231 0 0 0-6.301539 24.024615 215.433846 215.433846 0 0 1 28.356924 106.732308 169.353846 169.353846 0 0 1 0 24.418462 16.935385 16.935385 0 0 0 12.20923 18.510769 174.08 174.08 0 0 1 120.91077 163.446154 177.230769 177.230769 0 0 1-179.593847 173.292307h-14.572307a17.723077 17.723077 0 1 0 0 35.052308h14.572307a211.889231 211.889231 0 0 0 214.646154-208.344615 207.163077 207.163077 0 0 0-133.12-191.803077zM732.750966 29.144615a272.147692 272.147692 0 0 0-265.846154 11.815385A258.363077 258.363077 0 0 0 371.594043 146.116923a150.843077 150.843077 0 0 0-73.649231-18.904615 147.298462 147.298462 0 0 0-149.267692 143.36A207.556923 207.556923 0 0 0 17.132505 462.375385a202.830769 202.830769 0 0 0 31.901538 109.48923 18.116923 18.116923 0 0 0 14.966154 7.876923 17.329231 17.329231 0 0 0 9.452308-2.756923 15.753846 15.753846 0 0 0 7.483077-11.027692 15.36 15.36 0 0 0-2.363077-14.572308 170.535385 170.535385 0 0 1-25.993847-90.584615 174.08 174.08 0 0 1 118.153847-163.052308 17.329231 17.329231 0 0 0 12.20923-18.116923 82.313846 82.313846 0 0 1 0-9.452307 111.852308 111.852308 0 0 1 115.003077-107.913847 118.153846 118.153846 0 0 1 70.498462 24.024616 18.904615 18.904615 0 0 0 15.753846 3.150769 19.692308 19.692308 0 0 0 11.815385-10.633846 233.156923 233.156923 0 0 1 320.590769-118.153846 17.723077 17.723077 0 0 0 16.147692-31.507693zM511.409428 459.224615a630.153846 630.153846 0 0 0-67.741539 3.15077 17.329231 17.329231 0 0 0-15.753846 19.298461 17.723077 17.723077 0 0 0 19.298462 15.753846c20.48-1.969231 42.141538-3.150769 64.196923-3.150769 106.732308 0 171.716923 23.630769 176.836923 34.658462-5.12 12.603077-70.104615 35.84-176.836923 35.84s-170.929231-23.236923-176.443077-34.264616c0-2.756923 12.209231-12.603077 45.292307-21.267692a17.723077 17.723077 0 0 0 12.603077-21.661539 18.116923 18.116923 0 0 0-21.267692-12.996923c-47.655385 12.603077-71.68 31.113846-71.68 55.138462v370.609231a17.723077 17.723077 0 0 0 17.723077 17.723077 17.723077 17.723077 0 0 0 17.723077-17.723077v-46.08a472.615385 472.615385 0 0 0 176.443077 28.356923 474.978462 474.978462 0 0 0 174.867692-28.356923v98.461538c-5.12 12.603077-70.104615 35.84-176.836923 35.84-89.796923 0-157.538462-16.935385-174.08-33.083077a17.723077 17.723077 0 0 0-25.206154 0 17.723077 17.723077 0 0 0 0 24.812308c27.963077 25.993846 105.944615 42.535385 196.923077 42.535385 78.769231 0 211.889231-14.966154 211.889231-70.498462v-192.984615a17.723077 17.723077 0 0 0-17.723077-17.723077 17.723077 17.723077 0 0 0-17.723077 17.723077v51.987692c-5.12 12.603077-70.104615 36.233846-176.836923 36.233846s-171.716923-23.630769-176.443077-35.446154V712.861538a472.615385 472.615385 0 0 0 176.443077 28.75077c78.769231 0 211.889231-14.966154 211.889231-70.892308v-140.996923c4.332308-57.107692-128.787692-70.498462-207.556923-70.498462z m0 246.941539c-106.732308 0-171.716923-23.236923-176.443077-35.446154v-99.249231a465.526154 465.526154 0 0 0 176.443077 28.750769 467.495385 467.495385 0 0 0 175.261538-28.750769V669.538462c-3.544615 13.390769-68.529231 36.627692-175.261538 36.627692z" fill="#ffffff" p-id="2410"></path></svg>